<mxfile host="65bd71144e">
    <diagram id="CqSv7BX6qzKyR0yIG3fR" name="Page-1">
        <mxGraphModel dx="717" dy="626" grid="0" gridSize="10" guides="1" tooltips="1" connect="1" arrows="1" fold="1" page="1" pageScale="1" pageWidth="850" pageHeight="1100" background="none" math="0" shadow="0">
            <root>
                <mxCell id="0"/>
                <mxCell id="1" parent="0"/>
                <mxCell id="287" style="edgeStyle=none;html=1;fontFamily=Courier New;" edge="1" parent="1" source="289">
                    <mxGeometry relative="1" as="geometry">
                        <mxPoint x="320" y="280" as="targetPoint"/>
                    </mxGeometry>
                </mxCell>
                <mxCell id="288" style="edgeStyle=none;html=1;fontFamily=Courier New;jumpStyle=none;" edge="1" parent="1" source="289">
                    <mxGeometry relative="1" as="geometry">
                        <mxPoint x="650" y="518.9300000000001" as="targetPoint"/>
                    </mxGeometry>
                </mxCell>
                <mxCell id="289" value="" style="shape=waypoint;sketch=0;fillStyle=solid;size=6;pointerEvents=1;points=[];fillColor=none;resizable=0;rotatable=0;perimeter=centerPerimeter;snapToPoint=1;fontFamily=Courier New;" vertex="1" parent="1">
                    <mxGeometry x="310" y="508.93" width="20" height="20" as="geometry"/>
                </mxCell>
                <mxCell id="290" value="&lt;font&gt;O&lt;/font&gt;" style="text;html=1;align=center;verticalAlign=middle;resizable=0;points=[];autosize=1;strokeColor=none;fillColor=none;fontFamily=Courier New;" vertex="1" parent="1">
                    <mxGeometry x="289" y="518" width="30" height="30" as="geometry"/>
                </mxCell>
                <mxCell id="291" style="edgeStyle=orthogonalEdgeStyle;jumpStyle=none;html=1;exitX=0.5;exitY=1;exitDx=0;exitDy=0;fontFamily=Courier New;curved=1;" edge="1" parent="1" source="292" target="315">
                    <mxGeometry relative="1" as="geometry"/>
                </mxCell>
                <mxCell id="292" value="" style="ellipse;whiteSpace=wrap;html=1;aspect=fixed;fontFamily=Courier New;fillColor=#dae8fc;strokeColor=#6c8ebf;" vertex="1" parent="1">
                    <mxGeometry x="350" y="430" width="20" height="20" as="geometry"/>
                </mxCell>
                <mxCell id="293" style="edgeStyle=orthogonalEdgeStyle;curved=1;jumpStyle=none;html=1;exitX=0.5;exitY=1;exitDx=0;exitDy=0;entryX=0.5;entryY=0;entryDx=0;entryDy=0;fontFamily=Courier New;" edge="1" parent="1" source="294" target="326">
                    <mxGeometry relative="1" as="geometry"/>
                </mxCell>
                <mxCell id="294" value="" style="ellipse;whiteSpace=wrap;html=1;aspect=fixed;fontFamily=Courier New;fillColor=#d5e8d4;strokeColor=#82b366;" vertex="1" parent="1">
                    <mxGeometry x="390" y="390" width="20" height="20" as="geometry"/>
                </mxCell>
                <mxCell id="295" style="edgeStyle=orthogonalEdgeStyle;curved=1;jumpStyle=none;html=1;exitX=0.5;exitY=1;exitDx=0;exitDy=0;entryX=0.5;entryY=0;entryDx=0;entryDy=0;fontFamily=Courier New;" edge="1" parent="1" source="296" target="327">
                    <mxGeometry relative="1" as="geometry"/>
                </mxCell>
                <mxCell id="296" value="" style="ellipse;whiteSpace=wrap;html=1;aspect=fixed;fontFamily=Courier New;fillColor=#f8cecc;strokeColor=#b85450;" vertex="1" parent="1">
                    <mxGeometry x="510" y="390" width="20" height="20" as="geometry"/>
                </mxCell>
                <mxCell id="297" style="edgeStyle=orthogonalEdgeStyle;curved=1;jumpStyle=none;html=1;exitX=0.5;exitY=1;exitDx=0;exitDy=0;entryX=0.5;entryY=0;entryDx=0;entryDy=0;fontFamily=Courier New;" edge="1" parent="1" source="298" target="328">
                    <mxGeometry relative="1" as="geometry"/>
                </mxCell>
                <mxCell id="298" value="" style="ellipse;whiteSpace=wrap;html=1;aspect=fixed;fontFamily=Courier New;fillColor=#e1d5e7;strokeColor=#9673a6;" vertex="1" parent="1">
                    <mxGeometry x="550" y="350" width="20" height="20" as="geometry"/>
                </mxCell>
                <mxCell id="299" value="1" style="text;html=1;align=center;verticalAlign=middle;resizable=0;points=[];autosize=1;strokeColor=none;fillColor=none;fontFamily=Courier New;" vertex="1" parent="1">
                    <mxGeometry x="296" y="465" width="30" height="30" as="geometry"/>
                </mxCell>
                <mxCell id="300" value="2" style="text;html=1;align=center;verticalAlign=middle;resizable=0;points=[];autosize=1;strokeColor=none;fillColor=none;fontFamily=Courier New;" vertex="1" parent="1">
                    <mxGeometry x="296" y="425" width="30" height="30" as="geometry"/>
                </mxCell>
                <mxCell id="301" value="3" style="text;html=1;align=center;verticalAlign=middle;resizable=0;points=[];autosize=1;strokeColor=none;fillColor=none;fontFamily=Courier New;" vertex="1" parent="1">
                    <mxGeometry x="296" y="385" width="30" height="30" as="geometry"/>
                </mxCell>
                <mxCell id="302" value="4" style="text;html=1;align=center;verticalAlign=middle;resizable=0;points=[];autosize=1;strokeColor=none;fillColor=none;fontFamily=Courier New;" vertex="1" parent="1">
                    <mxGeometry x="296" y="345" width="30" height="30" as="geometry"/>
                </mxCell>
                <mxCell id="303" value="5" style="text;html=1;align=center;verticalAlign=middle;resizable=0;points=[];autosize=1;strokeColor=none;fillColor=none;fontFamily=Courier New;" vertex="1" parent="1">
                    <mxGeometry x="296" y="305" width="30" height="30" as="geometry"/>
                </mxCell>
                <mxCell id="304" value="1" style="text;html=1;align=center;verticalAlign=middle;resizable=0;points=[];autosize=1;strokeColor=none;fillColor=none;fontFamily=Courier New;" vertex="1" parent="1">
                    <mxGeometry x="346" y="515" width="30" height="30" as="geometry"/>
                </mxCell>
                <mxCell id="305" value="2" style="text;html=1;align=center;verticalAlign=middle;resizable=0;points=[];autosize=1;strokeColor=none;fillColor=none;fontFamily=Courier New;" vertex="1" parent="1">
                    <mxGeometry x="386" y="515" width="30" height="30" as="geometry"/>
                </mxCell>
                <mxCell id="306" value="3" style="text;html=1;align=center;verticalAlign=middle;resizable=0;points=[];autosize=1;strokeColor=none;fillColor=none;fontFamily=Courier New;" vertex="1" parent="1">
                    <mxGeometry x="426" y="515" width="30" height="30" as="geometry"/>
                </mxCell>
                <mxCell id="307" value="4" style="text;html=1;align=center;verticalAlign=middle;resizable=0;points=[];autosize=1;strokeColor=none;fillColor=none;fontFamily=Courier New;" vertex="1" parent="1">
                    <mxGeometry x="466" y="515" width="30" height="30" as="geometry"/>
                </mxCell>
                <mxCell id="308" value="5" style="text;html=1;align=center;verticalAlign=middle;resizable=0;points=[];autosize=1;strokeColor=none;fillColor=none;fontFamily=Courier New;" vertex="1" parent="1">
                    <mxGeometry x="506" y="515" width="30" height="30" as="geometry"/>
                </mxCell>
                <mxCell id="309" value="6" style="text;html=1;align=center;verticalAlign=middle;resizable=0;points=[];autosize=1;strokeColor=none;fillColor=none;fontFamily=Courier New;" vertex="1" parent="1">
                    <mxGeometry x="546" y="515" width="30" height="30" as="geometry"/>
                </mxCell>
                <mxCell id="310" style="edgeStyle=none;jumpStyle=none;html=1;fontFamily=Courier New;" edge="1" parent="1">
                    <mxGeometry relative="1" as="geometry">
                        <mxPoint x="625" y="614" as="targetPoint"/>
                        <mxPoint x="335" y="614" as="sourcePoint"/>
                    </mxGeometry>
                </mxCell>
                <mxCell id="311" value="" style="ellipse;whiteSpace=wrap;html=1;aspect=fixed;fontFamily=Courier New;fillColor=#dae8fc;strokeColor=#6c8ebf;" vertex="1" parent="1">
                    <mxGeometry x="410" y="610" width="10" height="10" as="geometry"/>
                </mxCell>
                <mxCell id="312" value="0" style="text;html=1;align=center;verticalAlign=middle;resizable=0;points=[];autosize=1;strokeColor=none;fillColor=none;fontFamily=Courier New;" vertex="1" parent="1">
                    <mxGeometry x="341" y="610" width="30" height="30" as="geometry"/>
                </mxCell>
                <mxCell id="313" value="1" style="text;html=1;align=center;verticalAlign=middle;resizable=0;points=[];autosize=1;strokeColor=none;fillColor=none;fontFamily=Courier New;" vertex="1" parent="1">
                    <mxGeometry x="361" y="610" width="30" height="30" as="geometry"/>
                </mxCell>
                <mxCell id="314" value="2" style="text;html=1;align=center;verticalAlign=middle;resizable=0;points=[];autosize=1;strokeColor=none;fillColor=none;fontFamily=Courier New;" vertex="1" parent="1">
                    <mxGeometry x="381" y="610" width="30" height="30" as="geometry"/>
                </mxCell>
                <mxCell id="315" value="3" style="text;html=1;align=center;verticalAlign=middle;resizable=0;points=[];autosize=1;strokeColor=none;fillColor=none;fontFamily=Courier New;" vertex="1" parent="1">
                    <mxGeometry x="401" y="610" width="30" height="30" as="geometry"/>
                </mxCell>
                <mxCell id="316" value="4" style="text;html=1;align=center;verticalAlign=middle;resizable=0;points=[];autosize=1;strokeColor=none;fillColor=none;fontFamily=Courier New;" vertex="1" parent="1">
                    <mxGeometry x="421" y="610" width="30" height="30" as="geometry"/>
                </mxCell>
                <mxCell id="317" value="5" style="text;html=1;align=center;verticalAlign=middle;resizable=0;points=[];autosize=1;strokeColor=none;fillColor=none;fontFamily=Courier New;" vertex="1" parent="1">
                    <mxGeometry x="441" y="610" width="30" height="30" as="geometry"/>
                </mxCell>
                <mxCell id="318" value="6" style="text;html=1;align=center;verticalAlign=middle;resizable=0;points=[];autosize=1;strokeColor=none;fillColor=none;fontFamily=Courier New;" vertex="1" parent="1">
                    <mxGeometry x="461" y="610" width="30" height="30" as="geometry"/>
                </mxCell>
                <mxCell id="319" value="7" style="text;html=1;align=center;verticalAlign=middle;resizable=0;points=[];autosize=1;strokeColor=none;fillColor=none;fontFamily=Courier New;" vertex="1" parent="1">
                    <mxGeometry x="481" y="610" width="30" height="30" as="geometry"/>
                </mxCell>
                <mxCell id="320" value="8" style="text;html=1;align=center;verticalAlign=middle;resizable=0;points=[];autosize=1;strokeColor=none;fillColor=none;fontFamily=Courier New;" vertex="1" parent="1">
                    <mxGeometry x="501" y="610" width="30" height="30" as="geometry"/>
                </mxCell>
                <mxCell id="321" value="9" style="text;html=1;align=center;verticalAlign=middle;resizable=0;points=[];autosize=1;strokeColor=none;fillColor=none;fontFamily=Courier New;" vertex="1" parent="1">
                    <mxGeometry x="521" y="610" width="30" height="30" as="geometry"/>
                </mxCell>
                <mxCell id="322" value="11" style="text;html=1;align=center;verticalAlign=middle;resizable=0;points=[];autosize=1;strokeColor=none;fillColor=none;fontFamily=Courier New;" vertex="1" parent="1">
                    <mxGeometry x="555" y="610" width="40" height="30" as="geometry"/>
                </mxCell>
                <mxCell id="323" value="12" style="text;html=1;align=center;verticalAlign=middle;resizable=0;points=[];autosize=1;strokeColor=none;fillColor=none;fontFamily=Courier New;" vertex="1" parent="1">
                    <mxGeometry x="575" y="610" width="40" height="30" as="geometry"/>
                </mxCell>
                <mxCell id="324" value="10" style="text;html=1;align=center;verticalAlign=middle;resizable=0;points=[];autosize=1;strokeColor=none;fillColor=none;fontFamily=Courier New;" vertex="1" parent="1">
                    <mxGeometry x="535" y="610" width="40" height="30" as="geometry"/>
                </mxCell>
                <mxCell id="325" style="edgeStyle=orthogonalEdgeStyle;curved=1;jumpStyle=none;html=1;exitX=1;exitY=0.5;exitDx=0;exitDy=0;entryX=0;entryY=0.5;entryDx=0;entryDy=0;fontFamily=Courier New;shape=link;strokeColor=#FF0000;" edge="1" parent="1" source="326" target="327">
                    <mxGeometry relative="1" as="geometry"/>
                </mxCell>
                <mxCell id="326" value="" style="ellipse;whiteSpace=wrap;html=1;aspect=fixed;fontFamily=Courier New;fillColor=#d5e8d4;strokeColor=#82b366;" vertex="1" parent="1">
                    <mxGeometry x="450" y="610" width="10" height="10" as="geometry"/>
                </mxCell>
                <mxCell id="327" value="" style="ellipse;whiteSpace=wrap;html=1;aspect=fixed;fontFamily=Courier New;fillColor=#f8cecc;strokeColor=#b85450;" vertex="1" parent="1">
                    <mxGeometry x="510" y="610" width="10" height="10" as="geometry"/>
                </mxCell>
                <mxCell id="328" value="" style="ellipse;whiteSpace=wrap;html=1;aspect=fixed;fontFamily=Courier New;fillColor=#e1d5e7;strokeColor=#9673a6;" vertex="1" parent="1">
                    <mxGeometry x="550" y="610" width="10" height="10" as="geometry"/>
                </mxCell>
                <mxCell id="329" value="" style="endArrow=none;dashed=1;html=1;dashPattern=1 3;strokeWidth=2;strokeColor=#FF3333;fontFamily=Courier New;curved=1;jumpStyle=none;" edge="1" parent="1">
                    <mxGeometry width="50" height="50" relative="1" as="geometry">
                        <mxPoint x="486" y="550" as="sourcePoint"/>
                        <mxPoint x="486" y="679" as="targetPoint"/>
                    </mxGeometry>
                </mxCell>
                <mxCell id="330" value="Magnitude" style="text;html=1;align=center;verticalAlign=middle;resizable=0;points=[];autosize=1;strokeColor=none;fillColor=none;fontFamily=Courier New;fontColor=#FF0000;" vertex="1" parent="1">
                    <mxGeometry x="440" y="681" width="90" height="30" as="geometry"/>
                </mxCell>
                <mxCell id="331" value="" style="shape=image;verticalLabelPosition=bottom;labelBackgroundColor=default;verticalAlign=top;aspect=fixed;imageAspect=0;image=data:image/png,iVBORw0KGgoAAAANSUhEUgAAAEUAAABnCAYAAABW6Y8UAAAACXBIWXMAAA7EAAAOxAGVKw4bAAAAEHRFWHRsb2dpY2FsWAA4NDUuNzE0plm9LwAAABB0RVh0bG9naWNhbFkANzgwLjU3Md38EekAAAALdEVYdHNjcmVlbgBEUC0xEywDSQAACApJREFUeJztm29IU98fx9+byz+k6Pw3JUkl+4tkhcNIyywRguyPFUXlg6QeFEgPIuiRUCo96VFE0B/tSQ8KfJAQWZHYtOWSNELUoRaG5B8Sk+k2N/98fg++Xy/zd8+2s+t2d79wXzC4nt3P+Zzz8tyzu3PuNEREUFmFNtwNUCKqFAaqFAaqFAaqFAaqFAaqFAaqFAaqFAaqFAaqFAaqFAaqFAaqFAaqFAaqFAaqFAaqFAaqFAaqFAaqFAaKl2Kz2fDr1y+4XC7Zcipaitlshl6vR1ZWFmpra2XLq2gpb9++xfLyMgAgOztbtryKlvLx40fhuKioSLa8GqXuEDocDuj1erjdbhgMBkxMTMiWW7Ej5dOnT3C73QCA4uJiWXMrVkpbW5twrEr5F08pBw8elDW3IueU2dlZJCYmYnFxEampqZicnJQ1vyJHSkdHBxYXFwHIf+kACpXieemUlJTInl+RUlpbW4XjcEhR3JwyMzODpKQkLC8vIy0tDePj47K3QXEjxWQyCbf2cn/qrKA4KeGeTwAFSvH8vhOukaKoOWV6ehrJyckgIqSnp2NsbCws7VDUSGlvb8fK/yhcowRQmJSOjg7hOJxSwnb5jI2Nob29HRaLBQMDA5icnITVahWWHTMyMlBQUACj0Yj9+/fDaDRi3bp18jSOZOT3799UX19Pu3fvJgABveLj4+n8+fPU2toa8nbKIuXbt2906tQpioiIYHZYq9WSXq8X/k5OTqakpCSvgkpKSqi/vz9k7Q2plNHRUTp9+jSzY3l5eVRTU0Mmk4lsNhtVV1cL7zU2NhIR0c+fP+nx48dkNBpF8dHR0fTkyZOQtDtkUu7fv0+xsbGizpw5c4a6urpE5+/cuVM458ePH6L3X758SSkpKaL67ty5E/S2B13K9PQ0HTt2TNT4rVu3Umdnp9cYrVZLACgjI8Nr3UNDQ5SZmSmq++nTp0HtQ1CljIyM0LZt25ijw263e41rbm4Wzr1w4YLPHN3d3RQVFbWq/piYGBoeHg5aP4ImxWq1Unp6ukjIlStXaHl52WfsjRs3hPMfPXrkN9f169dFeSoqKoLVleBIGR0dpY0bN4oaevz4cVpaWvIbn5+fL8RYrVa/5w8PD4tyaTQaGhoaCkZ31i5lfn6e9uzZI2pkdnY2zczM+I2fnZ0VPqoNBgN3XtbcUltbu5auCKz5Nv/mzZvo6ekRlTc2NiI+Pt5vvNlsxtLSEoDA1mO3bNkiKnv//j13vC/WJKWrqwsPHjwQlZ87d477u4vJZBKOA5Gi1+tFZd+/f+eO98lahllBQQHz2uaZF1YoLCwUYnt7e7njysvLmTeFbrdbSldWIVlKa2srs1FHjhzhrsPhcFBkZCQBoKSkJL+fUp6w5jEANDc3J6U7q5B8+Tx8+JBZfunSJe46LBaLsF984MABaDQarjgiwuDgoKg8IiIC69ev587vDUlSnE4nWlpaROVRUVEoLy/nrkfqfGK1WjE3Nycqz8zM5K7DF5KkfP78GQ6HQ1S+d+9eREdHc9fT3t4uHAcixWw2M8vz8vK46/CFJCmsj2AgsI653W5YLBYAQGJiYkAd8tws86S0tJS7Dl9IkjI6OsosNxqN3HVYLBY4nU4A/yw98s4nTqcTr1+/FpXrdDpUVFRw5/eFJCk2m41ZnpaWxl2H51ZGIPs7zc3NzPnk5MmTAeX3hSQpUVFRzPLU1FTuOjylHDp0iDvu3r17ojKtVouamhruOvwhSUpKSgqznHeS9ZxPDAYDduzYwRXX0tKC7u5uUfm1a9eQm5vLVQcXUm5umpqamDdOAwMDXPEmk0mIOXv2LFeM0+mknJwcUc5NmzaRzWaT0g2vSBoppaWliIyMFJX39/dzxUu5dG7duoXh4eFVZTExMWhqakJcXBxXHdxItXnixAnRf+3q1atcsSUlJULM4OCg3/OfPXsmyhUREUGvXr2S2nyfSJby9etXUUPj4uJoenraZ5zL5aKYmBi/67ErPH/+nHQ63ao8kZGR9OLFC6lN98uaviVXVVWJxFRVVfmM8ZxPKisrvZ63tLREdXV1pNFoVtUfHx9PbW1ta2m2X9YkxW63U25urkjM3bt3vcbcvn1bOG9lf+f/6evro6KiIuZqXiDLC1JZ83Lk+Pg4bd++XdSByspKmpiYEJ3vOZ+MjIyseq+/v58qKyuF7Y6Vl1arperq6qAsC/AQlIXrqakpOnr0qEhMbGwsXb58md68eUPj4+Or5pOsrCyanJyktrY2qq+vp3379okuFeCfnUSz2RyMZnIT1H2fhoYG2rBhA/MeBoBov8bXq6ysjN69exfM5nET9B1Ch8NBDQ0NVFRUxPzPe3vpdDoqLCykuro66uvrC3azAiKkz6f8/fsXHR0dsFgs6O3txYcPHzA/Pw8AKCsrg8FgQE5ODnbt2oXi4mKu1X85kO2hHYfDgYSEBCwsLMj++51Ake3xrs7OTiwsLAAI76NbPMgmxXM9NlzPx/KiSmEgy5zicrmQkJCA+fn5sD4fy4ssI+XLly/Cp47SRwkgk5T/0qUDyCRFKQ8N8xLyOWVxcREJCQmw2+3IyMjwuj2iJEI+Unp6emC32wH8Ny4dQAYpnlujqpR/8ZxPDh8+HOp0QSHkc0pKSgqmpqawefNm5uMTSkQXyspdLhfy8/Px588fXLx4MZSpgoqifhmmFBT1IyiloEphoEphoEphoEphoEphoEphoEphoEphoEphoEphoEphoEphoEph8D9kmIsFMX0W2AAAAABJRU5ErkJggg==;fontFamily=Courier New;" vertex="1" parent="1">
                    <mxGeometry x="325" y="575.57" width="23.06" height="34.43" as="geometry"/>
                </mxCell>
                <mxCell id="332" value="A" style="text;html=1;align=center;verticalAlign=middle;resizable=0;points=[];autosize=1;strokeColor=none;fillColor=none;fontFamily=Courier New;" vertex="1" parent="1">
                    <mxGeometry x="327" y="417" width="30" height="30" as="geometry"/>
                </mxCell>
                <mxCell id="333" value="B" style="text;html=1;align=center;verticalAlign=middle;resizable=0;points=[];autosize=1;strokeColor=none;fillColor=none;fontFamily=Courier New;" vertex="1" parent="1">
                    <mxGeometry x="361" y="371" width="30" height="30" as="geometry"/>
                </mxCell>
                <mxCell id="334" value="C" style="text;html=1;align=center;verticalAlign=middle;resizable=0;points=[];autosize=1;strokeColor=none;fillColor=none;fontFamily=Courier New;" vertex="1" parent="1">
                    <mxGeometry x="483" y="375" width="30" height="30" as="geometry"/>
                </mxCell>
                <mxCell id="335" value="D" style="text;html=1;align=center;verticalAlign=middle;resizable=0;points=[];autosize=1;strokeColor=none;fillColor=none;fontFamily=Courier New;" vertex="1" parent="1">
                    <mxGeometry x="527" y="331" width="30" height="30" as="geometry"/>
                </mxCell>
                <mxCell id="336" value="" style="endArrow=none;dashed=1;html=1;dashPattern=1 3;strokeWidth=2;strokeColor=#FF3333;fontFamily=Courier New;curved=1;jumpStyle=none;" edge="1" parent="1">
                    <mxGeometry width="50" height="50" relative="1" as="geometry">
                        <mxPoint x="520" y="302" as="sourcePoint"/>
                        <mxPoint x="385" y="579" as="targetPoint"/>
                    </mxGeometry>
                </mxCell>
                <mxCell id="388" style="edgeStyle=none;jumpStyle=none;html=1;fontFamily=Courier New;" edge="1" parent="1">
                    <mxGeometry relative="1" as="geometry">
                        <mxPoint x="668.25" y="821" as="targetPoint"/>
                        <mxPoint x="378.25" y="821" as="sourcePoint"/>
                    </mxGeometry>
                </mxCell>
                <mxCell id="389" value="0" style="text;html=1;align=center;verticalAlign=middle;resizable=0;points=[];autosize=1;strokeColor=none;fillColor=none;fontFamily=Courier New;" vertex="1" parent="1">
                    <mxGeometry x="384.25" y="817" width="30" height="30" as="geometry"/>
                </mxCell>
                <mxCell id="390" value="1" style="text;html=1;align=center;verticalAlign=middle;resizable=0;points=[];autosize=1;strokeColor=none;fillColor=none;fontFamily=Courier New;" vertex="1" parent="1">
                    <mxGeometry x="404.25" y="817" width="30" height="30" as="geometry"/>
                </mxCell>
                <mxCell id="391" value="2" style="text;html=1;align=center;verticalAlign=middle;resizable=0;points=[];autosize=1;strokeColor=none;fillColor=none;fontFamily=Courier New;" vertex="1" parent="1">
                    <mxGeometry x="424.25" y="817" width="30" height="30" as="geometry"/>
                </mxCell>
                <mxCell id="392" value="3" style="text;html=1;align=center;verticalAlign=middle;resizable=0;points=[];autosize=1;strokeColor=none;fillColor=none;fontFamily=Courier New;" vertex="1" parent="1">
                    <mxGeometry x="444.25" y="817" width="30" height="30" as="geometry"/>
                </mxCell>
                <mxCell id="393" value="4" style="text;html=1;align=center;verticalAlign=middle;resizable=0;points=[];autosize=1;strokeColor=none;fillColor=none;fontFamily=Courier New;" vertex="1" parent="1">
                    <mxGeometry x="464.25" y="817" width="30" height="30" as="geometry"/>
                </mxCell>
                <mxCell id="394" value="5" style="text;html=1;align=center;verticalAlign=middle;resizable=0;points=[];autosize=1;strokeColor=none;fillColor=none;fontFamily=Courier New;" vertex="1" parent="1">
                    <mxGeometry x="484.25" y="817" width="30" height="30" as="geometry"/>
                </mxCell>
                <mxCell id="395" value="6" style="text;html=1;align=center;verticalAlign=middle;resizable=0;points=[];autosize=1;strokeColor=none;fillColor=none;fontFamily=Courier New;" vertex="1" parent="1">
                    <mxGeometry x="504.25" y="817" width="30" height="30" as="geometry"/>
                </mxCell>
                <mxCell id="396" value="7" style="text;html=1;align=center;verticalAlign=middle;resizable=0;points=[];autosize=1;strokeColor=none;fillColor=none;fontFamily=Courier New;" vertex="1" parent="1">
                    <mxGeometry x="524.25" y="817" width="30" height="30" as="geometry"/>
                </mxCell>
                <mxCell id="397" value="8" style="text;html=1;align=center;verticalAlign=middle;resizable=0;points=[];autosize=1;strokeColor=none;fillColor=none;fontFamily=Courier New;" vertex="1" parent="1">
                    <mxGeometry x="544.25" y="817" width="30" height="30" as="geometry"/>
                </mxCell>
                <mxCell id="398" value="9" style="text;html=1;align=center;verticalAlign=middle;resizable=0;points=[];autosize=1;strokeColor=none;fillColor=none;fontFamily=Courier New;" vertex="1" parent="1">
                    <mxGeometry x="564.25" y="817" width="30" height="30" as="geometry"/>
                </mxCell>
                <mxCell id="399" value="11" style="text;html=1;align=center;verticalAlign=middle;resizable=0;points=[];autosize=1;strokeColor=none;fillColor=none;fontFamily=Courier New;" vertex="1" parent="1">
                    <mxGeometry x="598.25" y="817" width="40" height="30" as="geometry"/>
                </mxCell>
                <mxCell id="400" value="12" style="text;html=1;align=center;verticalAlign=middle;resizable=0;points=[];autosize=1;strokeColor=none;fillColor=none;fontFamily=Courier New;" vertex="1" parent="1">
                    <mxGeometry x="618.25" y="817" width="40" height="30" as="geometry"/>
                </mxCell>
                <mxCell id="401" value="10" style="text;html=1;align=center;verticalAlign=middle;resizable=0;points=[];autosize=1;strokeColor=none;fillColor=none;fontFamily=Courier New;" vertex="1" parent="1">
                    <mxGeometry x="578.25" y="817" width="40" height="30" as="geometry"/>
                </mxCell>
                <mxCell id="402" value="" style="ellipse;whiteSpace=wrap;html=1;aspect=fixed;fontFamily=Courier New;" vertex="1" parent="1">
                    <mxGeometry x="613.25" y="859" width="10" height="10" as="geometry"/>
                </mxCell>
                <mxCell id="408" value="" style="ellipse;whiteSpace=wrap;html=1;aspect=fixed;fontFamily=Courier New;" vertex="1" parent="1">
                    <mxGeometry x="574.25" y="859" width="10" height="10" as="geometry"/>
                </mxCell>
                <mxCell id="409" value="" style="ellipse;whiteSpace=wrap;html=1;aspect=fixed;fontFamily=Courier New;" vertex="1" parent="1">
                    <mxGeometry x="414.25" y="859" width="10" height="10" as="geometry"/>
                </mxCell>
                <mxCell id="410" value="" style="ellipse;whiteSpace=wrap;html=1;aspect=fixed;fontFamily=Courier New;dashed=1;strokeColor=#fc0328;dashPattern=1 1;" vertex="1" parent="1">
                    <mxGeometry x="534.25" y="859" width="10" height="10" as="geometry"/>
                </mxCell>
                <mxCell id="412" value="&lt;font&gt;K-Means&lt;/font&gt;" style="text;html=1;align=center;verticalAlign=middle;resizable=0;points=[];autosize=1;strokeColor=none;fillColor=none;fontFamily=Courier New;" vertex="1" parent="1">
                    <mxGeometry x="306.75" y="849" width="70" height="30" as="geometry"/>
                </mxCell>
                <mxCell id="413" value="" style="ellipse;whiteSpace=wrap;html=1;aspect=fixed;fontFamily=Courier New;" vertex="1" parent="1">
                    <mxGeometry x="613.25" y="909" width="10" height="10" as="geometry"/>
                </mxCell>
                <mxCell id="415" value="" style="ellipse;whiteSpace=wrap;html=1;aspect=fixed;fontFamily=Courier New;strokeColor=#f90101;" vertex="1" parent="1">
                    <mxGeometry x="574.25" y="909" width="10" height="10" as="geometry"/>
                </mxCell>
                <mxCell id="416" value="" style="ellipse;whiteSpace=wrap;html=1;aspect=fixed;fontFamily=Courier New;" vertex="1" parent="1">
                    <mxGeometry x="414.25" y="909" width="10" height="10" as="geometry"/>
                </mxCell>
                <mxCell id="418" value="K-Medoid" style="text;html=1;align=center;verticalAlign=middle;resizable=0;points=[];autosize=1;strokeColor=none;fillColor=none;fontFamily=Courier New;" vertex="1" parent="1">
                    <mxGeometry x="301.75" y="899" width="80" height="30" as="geometry"/>
                </mxCell>
            </root>
        </mxGraphModel>
    </diagram>
</mxfile>